<svg width="40" height="40" viewBox="0 0 40 40" fill="none" xmlns="http://www.w3.org/2000/svg">
<g clip-path="url(#clip0_1519_8352)">
<path d="M20.0017 39.9931C16.0412 39.9972 12.1684 38.8282 8.87324 36.6338C5.57803 34.4394 3.0084 31.3182 1.48936 27.665C-0.0296911 24.0119 -0.429917 19.9908 0.339301 16.1104C1.10852 12.23 3.01263 8.66465 5.81079 5.86522C8.60896 3.0658 12.1755 1.15809 16.0593 0.383383C19.943 -0.391329 23.9696 0.00175615 27.6297 1.51293C31.2898 3.0241 34.4189 5.58547 36.6214 8.87308C38.8239 12.1607 40.0008 16.0268 40.0032 19.9826C40.0016 25.2835 37.8948 30.3673 34.1451 34.1187C30.3954 37.8701 25.309 39.9827 20.0017 39.9931ZM20.0017 1.9776C16.4326 1.97344 12.9424 3.02688 9.97293 5.00461C7.00345 6.98234 4.68811 9.79546 3.31992 13.088C1.95174 16.3805 1.59222 20.0044 2.28684 23.501C2.98146 26.9977 4.69901 30.21 7.22213 32.7313C9.74525 35.2527 12.9605 36.9698 16.4611 37.6653C19.9616 38.3608 23.59 38.0036 26.8872 36.6387C30.1843 35.2738 33.002 32.9626 34.9836 29.9977C36.9652 27.0328 38.0217 23.5474 38.0193 19.9826C38.0145 15.2107 36.1149 10.6355 32.7371 7.26065C29.3594 3.88583 24.7793 1.98697 20.0017 1.9806V1.9776Z" fill="#9E9E9E"/>
<path fill-rule="evenodd" clip-rule="evenodd" d="M17.1112 31.4787H21.7292V19.8994H24.9594L25.2996 16.0205H21.7292V13.8135C21.7292 12.9115 21.9279 12.5386 22.807 12.5386H25.2996V8.52148H22.1085C18.6525 8.52148 17.1232 10.0249 17.1232 12.9355V16.0205H14.7148V19.9565H17.1232L17.1112 31.4787Z" fill="#9E9E9E"/>
</g>
<defs>
<clipPath id="clip0_1519_8352">
<rect width="40" height="40" fill="white"/>
</clipPath>
</defs>
</svg>
